<?xml version="1.0" encoding="utf-8"?>
<!-- Generator: Adobe Illustrator 25.4.1, SVG Export Plug-In . SVG Version: 6.00 Build 0)  -->
<svg version="1.1" id="Layer_1" xmlns="http://www.w3.org/2000/svg" xmlns:xlink="http://www.w3.org/1999/xlink" x="0px" y="0px"
	 viewBox="0 0 75 75" style="enable-background:new 0 0 75 75;" xml:space="preserve">
<style type="text/css">
	.st0{fill:#181821;}
	.st1{fill:#FE7130;}
</style>
<rect x="-1.3" class="st0" width="77.7" height="75"/>
<g>
	<path class="st1" d="M37.5,42.4c-6.5,0-12.9,0-19.4,0c-0.1,0-0.1,0.1-0.1-0.5c0-1.3,0-2.6,0-4c0-0.1,0-0.1,0-0.2
		c0-0.2,0-0.2,0.1-0.2c0,0,0,0,0.1,0c2.4,0,4.9,0,7.3,0c10.5,0,21,0,31.5,0c0,0,0.1,0,0.1,0c0,0,0,0.1,0,0.2c0,0.1,0,0.1,0,0.2
		c0,1.4,0,2.8,0,4.2c0,0,0,0.1,0,0.1c0,0.2,0,0.2-0.1,0.2c0,0-0.1,0-0.1,0C50.4,42.4,44,42.4,37.5,42.4z"/>
	<path class="st1" d="M46.1,34.3c-0.1,0-0.2,0-0.2,0c-1.7,0-3.5,0-5.2,0c-0.3,0-0.3,0-0.4-0.3c-0.1-0.8-0.2-1.6-0.3-2.4
		c-0.1-0.9-0.2-1.8-0.3-2.7c-0.1-0.9-0.2-1.8-0.4-2.7c-0.1-0.9-0.2-1.8-0.3-2.7c-0.1-0.9-0.2-1.8-0.4-2.8c-0.1-0.8-0.2-1.5-0.3-2.3
		c-0.1-0.8-0.2-1.5-0.3-2.3c-0.1-0.6-0.2-1.3-0.2-1.9c0-0.1,0-0.3-0.1-0.4c0,0-0.1,0.1-0.1,0.1c-0.1,0.7-0.2,1.4-0.3,2.1
		c-0.1,0.6-0.2,1.2-0.2,1.8c-0.1,0.8-0.2,1.5-0.3,2.3c-0.1,0.7-0.2,1.5-0.3,2.2c-0.1,0.7-0.2,1.5-0.3,2.2c-0.1,0.8-0.2,1.5-0.3,2.3
		c-0.1,0.7-0.2,1.5-0.3,2.2c-0.1,0.9-0.2,1.7-0.4,2.6c-0.1,0.8-0.2,1.5-0.3,2.3c0,0.1,0,0.3-0.1,0.4c0,0.1-0.1,0.2-0.2,0.2
		c-0.1,0-0.1,0-0.2,0c-1.7,0-3.3,0-5,0c-0.1,0-0.2,0-0.3,0c0-0.3,0-0.5,0.1-0.7c0.1-0.8,0.2-1.6,0.3-2.3c0.1-0.7,0.2-1.4,0.3-2.2
		c0.1-0.8,0.2-1.5,0.3-2.3c0.1-0.7,0.2-1.5,0.3-2.2c0.1-0.8,0.2-1.5,0.3-2.3c0.1-0.9,0.2-1.8,0.4-2.7c0.1-0.7,0.2-1.5,0.3-2.2
		c0.1-0.9,0.2-1.8,0.4-2.7c0.1-0.7,0.2-1.5,0.3-2.2c0.1-0.7,0.2-1.5,0.3-2.2c0.1-0.8,0.2-1.5,0.3-2.3c0.1-0.4,0-0.4,0.5-0.4
		c3,0,6,0,9.1,0c0.1,0,0.1,0,0.2,0c0.3,0,0.3,0,0.3,0.3c0.2,1.3,0.4,2.6,0.5,3.9c0.1,1,0.3,2,0.4,3c0.1,0.9,0.2,1.8,0.4,2.6
		c0.1,0.7,0.2,1.5,0.3,2.2c0.1,0.9,0.2,1.8,0.4,2.7c0.1,0.7,0.2,1.5,0.3,2.2c0.1,0.8,0.2,1.5,0.3,2.3c0.1,0.7,0.2,1.5,0.3,2.2
		c0.1,0.9,0.2,1.8,0.4,2.7C45.9,32.5,46,33.3,46.1,34.3C46.1,34.2,46.1,34.2,46.1,34.3z"/>
	<path class="st1" d="M50.5,67.5c-0.1,0-0.2,0-0.3,0c-1.8,0-3.5,0-5.3,0c0,0-0.1,0-0.1,0c-0.2,0-0.2,0-0.2-0.2
		c-0.1-0.3-0.1-0.7-0.1-1c-0.1-0.6-0.2-1.3-0.2-1.9c-0.1-0.6-0.2-1.3-0.3-1.9c-0.1-0.8-0.2-1.5-0.3-2.3c-0.1-0.6-0.2-1.3-0.2-1.9
		c-0.1-0.8-0.2-1.5-0.3-2.3C43,55.3,43,54.7,42.9,54c-0.1-0.6-0.2-1.2-0.2-1.9c-0.1-0.6-0.2-1.3-0.2-1.9c-0.1-0.8-0.2-1.6-0.3-2.3
		c-0.1-0.7-0.2-1.5-0.3-2.2c0,0,0-0.1,0-0.2c0.1,0,0.2,0,0.3,0c1.7,0,3.5,0,5.2,0c0,0,0.1,0,0.1,0c0.1,0,0.2,0,0.2,0.2
		c0,0.4,0.1,0.8,0.2,1.1c0.1,0.7,0.2,1.5,0.3,2.2c0.1,0.8,0.2,1.5,0.3,2.3c0.1,0.9,0.2,1.8,0.4,2.7c0.1,0.7,0.2,1.5,0.3,2.2
		c0.1,0.8,0.2,1.5,0.3,2.3c0.1,0.7,0.2,1.5,0.3,2.2c0.1,0.9,0.2,1.8,0.4,2.7c0.1,0.7,0.2,1.5,0.3,2.2c0.1,0.5,0.1,1,0.2,1.5
		C50.5,67.3,50.5,67.4,50.5,67.5z"/>
	<path class="st1" d="M33.1,45.6c0.1,0.3,0,0.5,0,0.7c-0.1,0.8-0.2,1.5-0.3,2.3c-0.1,0.9-0.2,1.7-0.4,2.6c-0.1,0.8-0.2,1.5-0.3,2.3
		c-0.1,0.9-0.2,1.7-0.4,2.6c-0.1,0.7-0.2,1.5-0.3,2.2c-0.1,0.7-0.2,1.5-0.3,2.2c-0.1,0.7-0.2,1.5-0.3,2.2c-0.1,0.7-0.2,1.4-0.3,2.2
		c-0.1,0.8-0.2,1.5-0.3,2.3c0,0.1,0,0.1,0,0.2c0,0.1-0.1,0.2-0.2,0.2c-0.1,0-0.1,0-0.2,0c-1.7,0-3.3,0-5,0c-0.1,0-0.2,0-0.3,0
		c0-0.3,0.1-0.6,0.1-0.9c0.1-0.6,0.2-1.3,0.3-1.9c0.1-0.7,0.2-1.4,0.3-2.2c0.1-0.8,0.2-1.5,0.3-2.3c0.1-0.7,0.2-1.5,0.3-2.2
		c0.1-0.8,0.2-1.5,0.3-2.3c0.1-0.9,0.2-1.8,0.4-2.7c0.1-0.7,0.2-1.5,0.3-2.2c0.1-0.9,0.2-1.8,0.4-2.7c0.1-0.7,0.2-1.5,0.3-2.2
		c0-0.1,0-0.1,0-0.2c0-0.1,0.1-0.2,0.2-0.2c0.1,0,0.1,0,0.2,0c1.7,0,3.3,0,5,0C32.9,45.6,33,45.6,33.1,45.6z"/>
</g>
</svg>
